<?xml version="1.0" standalone="no"?>
<!DOCTYPE svg PUBLIC "-//W3C//DTD SVG 20010904//EN"
 "http://www.w3.org/TR/2001/REC-SVG-20010904/DTD/svg10.dtd">
<svg version="1.0" xmlns="http://www.w3.org/2000/svg"
 width="512.000000pt" height="512.000000pt" viewBox="0 0 512.000000 512.000000"
 preserveAspectRatio="xMidYMid meet">
<metadata>
Created by potrace 1.14, written by Peter Selinger 2001-2017
</metadata>
<g transform="translate(0.000000,512.000000) scale(0.100000,-0.100000)"
fill="#000000" stroke="none">
<path d="M1054 4549 c-22 -4 -81 -23 -132 -43 -50 -20 -103 -36 -118 -36 -86
0 -214 -128 -214 -214 0 -29 -18 -41 -75 -51 -118 -22 -233 -110 -295 -227
l-33 -63 -3 -185 c-4 -245 -13 -518 -18 -554 -6 -36 -19 -48 -77 -70 -67 -24
-83 -45 -77 -103 15 -146 160 -290 329 -325 l59 -12 1 -116 c1 -269 29 -435
111 -655 83 -223 203 -419 407 -665 31 -37 72 -87 90 -110 19 -23 40 -48 45
-54 6 -6 31 -36 56 -66 156 -192 302 -325 405 -371 122 -54 291 -73 408 -45
179 42 404 203 707 506 162 161 203 205 305 325 28 32 55 63 61 69 12 13 210
261 239 299 l20 27 40 -36 c43 -39 194 -177 284 -260 31 -28 70 -64 86 -79 17
-15 73 -67 125 -115 52 -48 109 -100 125 -115 17 -15 84 -79 151 -141 l121
-113 2 -138 c4 -206 3 -200 33 -228 l27 -25 406 0 406 0 26 24 c25 23 26 30
25 112 -2 103 -14 151 -53 222 -58 104 -132 164 -250 202 -76 24 -100 46 -298
281 -62 74 -133 157 -156 184 -24 28 -58 68 -76 90 -33 39 -74 86 -94 109 -5
6 -39 45 -75 86 -36 41 -77 88 -92 105 -14 16 -35 40 -46 53 -189 218 -404
440 -464 478 -135 86 -325 84 -500 -5 -95 -49 -148 -87 -429 -313 -348 -279
-659 -530 -732 -590 l-58 -48 -30 17 c-37 22 -132 113 -180 173 -56 69 -122
211 -136 292 -4 28 14 71 52 123 33 46 63 109 71 152 12 62 7 168 -10 200 -15
29 -129 150 -177 188 -53 42 -169 150 -169 157 0 7 48 32 167 84 21 9 43 18
48 20 11 2 217 88 250 104 11 5 60 25 108 45 238 96 322 156 378 270 34 69 39
91 43 160 5 102 -31 210 -95 288 -39 47 -141 113 -291 188 l-125 62 -17 66
c-46 173 -172 317 -334 380 -83 33 -202 45 -288 30z"/>
</g>
</svg>
